# xmcd
#
# Track frame offsets: 
#        150
#        14637
#        28754
#        42549
#        58134
#        73677
#        87698
#        102770
#        117945
#        132538
#        146397
#        160320
#        174317
#        186701
#        200551
#        213113
#        225719
#        237334
#        250414
#        264105
#        276933
#        289969
#        304324
#        319185
#        330772
#
# Disc length: 4569 seconds
#
# Revision: 0
# Processed by: cddbd v1.5.2PL0 Copyright (c) Steve Scherf et al.
# Submitted via: ExactAudioCopyFreeDBPlugin 1.0
#
DISCID=8311d719
DTITLE=Jimmie Rodgers - The Singing Brakeman - His 50 Greatest 1927-19
DTITLE=33 (2CD)
DYEAR=2006
DGENRE=Country
TTITLE0=The Brakeman's Blues (Yodelling The Blues Away)
TTITLE1=The Soldier's Sweetheart
TTITLE2=Sleep, Baby, Sleep
TTITLE3=Ben Dewberry's Final Run
TTITLE4=Blue Yodel No.1 (T For Texas)
TTITLE5=The Sailor's Plea
TTITLE6=In The Jailhouse Now
TTITLE7=Blue Yodel No.2 (My Lovin' Gal, Lucille)
TTITLE8=Blue Yodel No.3 (Evening Sun Yodel or She's Long She's Tall)
TTITLE9=My Old Pal
TTITLE10=My Little Old Home Down In New Orleans
TTITLE11=My Little Lady
TTITLE12=Never No Mo' Blues
TTITLE13=Blue Yodel No.4 (California Blues)
TTITLE14=Waiting For A Train
TTITLE15=Any Old Time
TTITLE16=Blue Yodel No.5
TTITLE17=Tuck Away My Lonesome Blues
TTITLE18=Train Whistle Blues
TTITLE19=Jimmie's Texas Blues
TTITLE20=Frankie And Johnny
TTITLE21=Blue Yodel No.6
TTITLE22=Yodelling Cowboy
TTITLE23=My Rough And Rowdy Ways
TTITLE24=Hobo Bill's Last Ride
EXTD=
EXTT0=
EXTT1=
EXTT2=
EXTT3=
EXTT4=
EXTT5=
EXTT6=
EXTT7=
EXTT8=
EXTT9=
EXTT10=
EXTT11=
EXTT12=
EXTT13=
EXTT14=
EXTT15=
EXTT16=
EXTT17=
EXTT18=
EXTT19=
EXTT20=
EXTT21=
EXTT22=
EXTT23=
EXTT24=
PLAYORDER=
